<?xml version="1.0" encoding="utf-8"?>
<!-- Generator: Adobe Illustrator 26.0.0, SVG Export Plug-In . SVG Version: 6.00 Build 0)  -->
<svg version="1.1" id="Layer_1" xmlns="http://www.w3.org/2000/svg" xmlns:xlink="http://www.w3.org/1999/xlink" x="0px" y="0px"
	 viewBox="0 0 595.28 841.89" style="enable-background:new 0 0 595.28 841.89;" xml:space="preserve">
<style type="text/css">
	.st0{stroke:#000000;stroke-miterlimit:10;}
	.st1{display:none;}
	.st2{fill:#ED1C24;}
	.st3{fill:#18743A;}
</style>
<rect x="239.36" y="186.58" class="st0" width="9.5" height="445.96"/>
<rect x="359.95" y="186.25" class="st0" width="9.5" height="445.96"/>
<path class="st1" d="M261.16,199.91c-0.15-2.26-1.27-20.3,0-27.15c0.3-1.59,0.71-2.83,0.71-2.83c1.24-3.7,3.03-5.19,4.76-8.19
	c0.82-1.43,1.85-3.55,2.54-6.46c1.01-2.78,2.01-5.56,3.02-8.35c0.37-2.41,0.74-4.83,1.11-7.24c0.32-1.68,0.64-3.36,0.95-5.04
	c0.94-4.29,1.55-7.82,1.93-10.25c1.34-8.6,0.59-8.35,1.73-12.34c0.83-2.91,1.66-4.56,1.21-7.2c-0.1-0.61-0.77-4.57-3.28-5.14
	c-1.43-0.32-2.96,0.57-3.8,1.54c-1.06,1.21-0.93,2.4-1.21,5.48c-0.25,2.72-0.52,5.68-1.55,8.74c-0.93,2.76-1.37,2.3-2.25,5.14
	c-0.96,3.12-0.86,5.05-2.07,5.48c-0.78,0.28-1.87-0.14-2.42-0.86c-1.2-1.56,0.67-3.86,1.9-7.88c1.65-5.38-0.23-6,1.38-14.74
	c0.36-1.94,0.65-3.89,1.04-5.83c0.86-4.28,1.36-5.6,0.52-7.03c-1.04-1.77-3.29-2.28-3.8-2.4c-0.82-0.19-2.15-0.49-3.28,0.17
	c-1.1,0.64-1.4,1.85-1.9,3.94c-0.6,2.54-0.29,3.23-0.86,6.68c-0.17,1-0.34,1.81-0.69,3.43c-0.45,2.1-0.68,2.91-1.04,4.46
	c-0.42,1.81-0.28,1.48-1.21,6.17c-1.17,5.94-1.25,5.77-1.21,6.51c0.06,1.14,0.28,2.32-0.35,2.74c-0.48,0.32-1.37,0.13-1.9-0.34
	c-1.15-1.03-0.36-3.14,0-6.34c0.17-1.54,0.3-3.76,0-6.51c0-3.66,0-7.31,0-10.97c0-3.26,0-6.51,0-9.77
	c-0.13-2.08-1.45-3.84-3.28-4.46c-1.59-0.53-3.36-0.13-4.49,0.86c-1.22,1.07-1.33,2.52-1.55,6.34c-0.45,7.76-0.52,10.11-0.52,10.11
	c-0.2,6.97-0.23,7.08-0.17,8.23c0.33,6.67,0.35,6.85,0.35,6.85c0.27,2.81,0.6,4.41-0.35,5.14c-0.68,0.53-1.75,0.38-2.42,0
	c-1.25-0.72-0.75-1.98-0.86-4.63c-0.23-5.2-0.82-5.64-2.07-11.82c-0.61-3.02,0.2-7.32-1.38-12.68c-0.57-1.94-1.21-3.43-2.59-3.94
	c-1.67-0.62-3.82,0.3-5.01,1.71c-1.27,1.5-1.24,3.27-1.21,3.77c0,2.46,0,4.91,0,7.37c0.06,2.86,0.12,5.71,0.17,8.57
	c0.06,2.34-0.06,5.36,0.23,6.94c0.25,1.34,0.63,2.6,0.98,3.85c0.04,2.1,0.03,3.85,0,5.14c-0.09,4.3-0.37,6.25-0.52,7.2
	c-0.33,2.1-0.7,3.32-1.21,4.46c-0.81,1.82-1.22,2.73-1.9,2.91c-1.63,0.43-3.35-3.05-9.33-9.94c-1.05-1.21-2.57-2.91-5.01-4.46
	c-2.3-1.45-4.02-1.88-5.53-1.89c-0.96-0.01-2.84-0.02-3.63,1.2c-0.69,1.06-0.16,2.47,0,2.91c0.6,1.61,1.78,2.25,3.11,3.43
	c1.94,1.71,2.93,3.5,3.63,4.63c0.92,1.49,1.38,2.63,2.25,4.8c1.6,4.03,1.46,4.8,2.42,7.03c0.83,1.93,2.12,3.6,4.66,6.85
	c3.08,3.94,6.49,7.74,7.08,8.4c2.87,3.18,4.21,4.45,5.01,7.03c0.57,1.82,0.65,3.61,0.69,4.46c0.09,1.87-0.1,3.04-0.52,6
	c0,0-0.29,2.05-1.04,7.71c-0.45,3.42-0.66,5.3-1.04,7.37c-0.48,2.65-0.71,3.97-0.88,4.26c-0.08,0.15-0.24,0.4-0.15,0.64
	c0.06,0.19,0.3,0.08,3.95,0.15c1.21,0.02,2.7-0.11,5.04-0.15c7.61-0.13,15.23,0,22.84,0C258.31,199.91,259.73,199.91,261.16,199.91z
	"/>
<path class="st1" d="M381.05,200.97c-0.16-2.31-1.35-20.67,0-27.64c0.32-1.62,0.76-2.89,0.76-2.89c1.32-3.76,3.22-5.28,5.06-8.34
	c0.88-1.45,1.96-3.62,2.7-6.57c1.07-2.83,2.14-5.67,3.2-8.5c0.39-2.46,0.79-4.92,1.18-7.38c0.34-1.71,0.67-3.42,1.01-5.13
	c1-4.37,1.65-7.96,2.05-10.43c1.42-8.76,0.63-8.5,1.84-12.56c0.88-2.96,1.76-4.65,1.28-7.33c-0.11-0.63-0.82-4.66-3.49-5.23
	c-1.52-0.33-3.14,0.58-4.04,1.57c-1.12,1.24-0.98,2.45-1.28,5.58c-0.27,2.77-0.55,5.78-1.65,8.9c-0.99,2.81-1.45,2.34-2.39,5.23
	c-1.02,3.18-0.92,5.14-2.2,5.58c-0.83,0.29-1.99-0.14-2.57-0.87c-1.27-1.59,0.71-3.93,2.02-8.03c1.75-5.48-0.24-6.11,1.47-15.01
	c0.38-1.98,0.69-3.96,1.1-5.93c0.92-4.35,1.45-5.7,0.55-7.15c-1.11-1.8-3.5-2.32-4.04-2.44c-0.87-0.19-2.28-0.5-3.49,0.17
	c-1.17,0.66-1.49,1.88-2.02,4.01c-0.64,2.59-0.3,3.29-0.92,6.8c-0.18,1.02-0.36,1.84-0.73,3.49c-0.48,2.14-0.72,2.96-1.1,4.54
	c-0.44,1.84-0.3,1.5-1.28,6.28c-1.25,6.05-1.33,5.88-1.28,6.63c0.07,1.16,0.3,2.36-0.37,2.79c-0.51,0.33-1.46,0.13-2.02-0.35
	c-1.22-1.04-0.38-3.2,0-6.46c0.18-1.57,0.31-3.83,0-6.63c0-3.72,0-7.44,0-11.17c0-3.32,0-6.63,0-9.95
	c-0.14-2.12-1.54-3.91-3.49-4.54c-1.69-0.54-3.57-0.13-4.77,0.87c-1.3,1.09-1.42,2.57-1.65,6.46c-0.48,7.9-0.55,10.29-0.55,10.29
	c-0.21,7.09-0.24,7.21-0.18,8.38c0.35,6.8,0.37,6.98,0.37,6.98c0.29,2.86,0.64,4.49-0.37,5.23c-0.73,0.54-1.86,0.39-2.57,0
	c-1.33-0.73-0.79-2.02-0.92-4.71c-0.24-5.29-0.87-5.75-2.2-12.04c-0.65-3.08,0.21-7.45-1.47-12.91c-0.61-1.98-1.29-3.5-2.75-4.01
	c-1.78-0.63-4.05,0.31-5.32,1.74c-1.35,1.53-1.31,3.33-1.28,3.84c0,2.5,0,5,0,7.5c0.06,2.91,0.12,5.82,0.18,8.72
	c0.06,2.38-0.06,5.46,0.24,7.07c0.26,1.37,0.67,2.64,1.04,3.92c0.05,2.14,0.03,3.92,0,5.23c-0.1,4.37-0.39,6.36-0.55,7.33
	c-0.36,2.14-0.75,3.38-1.28,4.54c-0.86,1.86-1.29,2.78-2.02,2.97c-1.73,0.44-3.56-3.1-9.91-10.12c-1.11-1.23-2.73-2.96-5.32-4.54
	c-2.45-1.48-4.27-1.91-5.87-1.92c-1.02-0.01-3.02-0.02-3.85,1.22c-0.73,1.08-0.17,2.52,0,2.97c0.63,1.64,1.89,2.29,3.3,3.49
	c2.06,1.75,3.11,3.57,3.85,4.71c0.98,1.52,1.47,2.68,2.39,4.89c1.7,4.1,1.55,4.89,2.57,7.15c0.88,1.96,2.25,3.66,4.95,6.98
	c3.27,4.01,6.9,7.88,7.52,8.55c3.04,3.24,4.47,4.53,5.32,7.15c0.6,1.85,0.69,3.68,0.73,4.54c0.09,1.9-0.11,3.09-0.55,6.11
	c0,0-0.31,2.09-1.1,7.85c-0.48,3.48-0.71,5.4-1.1,7.5c-0.51,2.7-0.76,4.04-0.94,4.34c-0.09,0.15-0.25,0.4-0.16,0.66
	c0.07,0.19,0.32,0.08,4.2,0.15c1.29,0.02,2.87-0.11,5.36-0.15c8.09-0.13,16.17,0,24.26,0C378.02,200.97,379.54,200.97,381.05,200.97
	z"/>
<rect x="130.53" y="632.54" width="350.93" height="10.49"/>
<path class="st2" d="M302.88,645.6c0-4.86,0-9.72,0-14.58c-0.4-0.06-0.94-0.21-1.37-0.63c-0.71-0.71-0.62-1.74-0.64-2.82
	c-0.01-0.54-0.06-3.62-1.28-5.92c-0.74-1.41-1.12-1-2.19-2.64c-0.39-0.61-1.74-2.73-1.82-5.74c-0.02-0.85-0.06-3.19,1.37-5.56
	c1.82-3.03,5.26-4.82,8.65-4.83c3.18-0.01,5.42,1.54,6.19,2.09c0.81,0.58,2.39,1.74,3.37,3.92c1.05,2.35,0.78,4.48,0.64,5.46
	c-0.06,0.42-0.34,2.18-1.46,4.1c-0.93,1.6-1.41,1.52-2.28,3.1c-0.96,1.74-1.27,3.44-1.37,4.01c-0.11,0.61-0.51,3.22-1.09,4.55
	c-0.12,0.27-0.27,0.54-0.55,0.73c-0.51,0.35-0.97,0.11-1.28,0.36c-0.23,0.19-0.36,0.65,0,1.82c0,4.28,0,8.56,0,12.84c0,0,0,0,0,0
	c0.18-0.03,0.47-0.04,0.79,0.06c0.2,0.06,0.65,0.21,0.79,0.57c0.12,0.3-0.07,0.52,0.09,0.7c0.11,0.12,0.26,0.1,0.48,0.13
	c0.04,0.01,0.68,0.1,1.14,0.52c0.11,0.1,0.58,0.58,0.52,1.14c-0.02,0.22-0.12,0.33-0.04,0.48c0.1,0.21,0.41,0.22,0.65,0.26
	c0.79,0.13,1.45,0.61,1.79,1c0.13,0.15,0.46,0.53,0.52,1.09c0.07,0.64-0.27,0.95-0.09,1.35c0.11,0.25,0.33,0.33,0.87,0.57
	c1.12,0.49,1.67,0.74,2.18,1.14c0.52,0.41,0.94,0.73,1,1.22c0.03,0.21-0.01,0.46,0.17,0.65c0.17,0.18,0.33,0.12,0.53,0.33
	c0.19,0.21,0.13,0.36,0.29,0.5c0.21,0.18,0.53,0.11,0.65,0.08c0.7-0.13,1.42,0.14,2.14,0.19c1.3,0.09,2.39,0.31,3.09,0.45
	c1.18,0.24,1.9,0.38,2.86,0.76c1.7,0.67,2.7,1.5,2.9,1.67c0.46,0.39,0.8,0.76,1.03,1.03c0.46,0.77,1.09,1.91,1.76,3.33
	c1.1,2.34,1.03,2.78,0.96,3c-0.35,1.11-2.1,1.59-5.5,2c-2.39,0.29-5.75,0.56-9.87,0.47c-15.3-0.13-21.62-0.14-24.45-0.11
	c-0.67,0.01-4.33,0.04-9.26,0.05c-0.89,0-1.62,0-2.05,0c-2.15-0.35-3.57-1.02-4.47-1.6c-0.61-0.38-2.22-1.5-2.22-1.5l0,0
	c0,0,0.11-0.95,0.27-2.44c0-0.77,0.11-2.75,1.54-4.32c0.82-0.9,1.73-1.3,2.74-1.73c0.87-0.37,2.67-1.15,5.02-1.09
	c1.74,0.04,3.01,0.53,4.15-0.32c0.27-0.2,0.45-0.41,0.56-0.56c0.09-0.12,0.23-0.3,0.4-0.52c0.68-0.91,0.69-1.12,1.02-1.49
	c0.5-0.56,1.12-0.8,1.59-0.99c0.86-0.34,1.19-0.21,1.47-0.57c0.3-0.37,0.06-0.66,0.23-1.41c0.04-0.17,0.35-1.48,1.31-1.97
	c0.74-0.37,1.5-0.09,1.71-0.54c0.05-0.12,0.01-0.15,0.03-0.4c0-0.05,0.07-0.87,0.6-1.37c0.5-0.47,1.34-0.57,1.34-0.57
	c0,0,0.22,0.02,0.31-0.03c0.2-0.09,0.06-0.53,0.17-0.83C301.62,646.03,301.91,645.74,302.88,645.6z"/>
<path class="st3" d="M239.36,186.58c-16.2,45.8-32.39,91.6-48.59,137.39c9.09-7.71,18.17-15.42,27.26-23.13
	c-12.83,45.64-25.66,91.28-38.49,136.92c10.21-5.61,20.41-11.21,30.62-16.82c-11.09,47.68-22.17,95.35-33.26,143.03
	c20.82-12.84,41.64-25.68,62.47-38.52C239.36,412.49,239.36,299.53,239.36,186.58z"/>
<path class="st3" d="M360.1,186.58c-16.2,45.8-32.39,91.6-48.59,137.39c9.09-7.71,18.17-15.42,27.26-23.13
	c-12.83,45.64-25.66,91.28-38.49,136.92c10.21-5.61,20.41-11.21,30.62-16.82c-11.09,47.68-22.17,95.35-33.26,143.03
	c20.82-12.84,41.64-25.68,62.47-38.52C360.1,412.49,360.1,299.53,360.1,186.58z"/>
</svg>
