<svg xmlns="http://www.w3.org/2000/svg" viewBox="0 0 200 291.28"><defs><style>.cls-1,.cls-2{fill:#231f20;}.cls-1{stroke:#231f20;stroke-miterlimit:10;}.cls-3{fill:#ed1c24;}</style></defs><g id="Layer_1" data-name="Layer 1"><rect class="cls-1" x="226.05" y="6.61" width="9.5" height="267.72" transform="translate(-83.97 8.99) rotate(-3.67)"/></g><g id="Hand_pen_tool" data-name="Hand pen tool"><rect class="cls-2" y="263.88" width="200" height="7.76"/></g><g id="Joystick_pen_tool" data-name="Joystick pen tool"><path class="cls-3" d="M173.3,280V269.84a1.61,1.61,0,0,1-1-.44c-.49-.49-.43-1.21-.44-2a9.94,9.94,0,0,0-.89-4.11c-.51-1-.77-.7-1.52-1.84a7.78,7.78,0,0,1-1.26-4,7,7,0,0,1,.95-3.86,7.1,7.1,0,0,1,6-3.35,7.35,7.35,0,0,1,4.3,1.45,6.32,6.32,0,0,1,2.78,6.52,8,8,0,0,1-1,2.84c-.65,1.12-1,1.06-1.58,2.15a9.1,9.1,0,0,0-.95,2.79,16.24,16.24,0,0,1-.76,3.16,1,1,0,0,1-.38.51c-.35.24-.67.07-.88.25s-.25.46,0,1.27v8.92h0a1.22,1.22,0,0,1,.55,0c.14,0,.45.14.54.39s-.05.36.06.49.18.07.34.09a1.57,1.57,0,0,1,.78.36,1.06,1.06,0,0,1,.37.79c0,.15-.08.23,0,.34s.28.15.45.18a2.2,2.2,0,0,1,1.25.7,1.43,1.43,0,0,1,.36.75c.05.45-.19.66-.06.94s.23.23.61.4a6.66,6.66,0,0,1,1.51.79c.37.28.66.5.7.85a.77.77,0,0,0,.12.45c.12.13.23.08.37.23s.09.25.2.35a.61.61,0,0,0,.46.06,6.22,6.22,0,0,1,1.48.13,15.75,15.75,0,0,1,2.15.31,9.49,9.49,0,0,1,2,.53,7,7,0,0,1,2,1.16,6.68,6.68,0,0,1,.71.71c.32.54.76,1.33,1.23,2.31.77,1.63.71,1.93.67,2.09-.24.77-1.46,1.1-3.83,1.39a47.38,47.38,0,0,1-6.85.32c-10.63-.09-15-.09-17-.07-.47,0-3,0-6.44,0H160a8,8,0,0,1-3.11-1.11c-.42-.27-1.54-1-1.54-1h0l.19-1.69a4.48,4.48,0,0,1,1.07-3,5,5,0,0,1,1.9-1.2,8,8,0,0,1,3.48-.76c1.21,0,2.1.36,2.89-.22a1.91,1.91,0,0,0,.38-.39,3.87,3.87,0,0,0,.28-.36c.47-.63.48-.77.71-1a2.73,2.73,0,0,1,1.11-.69c.59-.24.82-.15,1-.4s0-.46.16-1a2.16,2.16,0,0,1,.91-1.36c.51-.26,1.05-.07,1.19-.38,0-.08,0-.1,0-.27a1.62,1.62,0,0,1,.41-1A1.94,1.94,0,0,1,172,281a.59.59,0,0,0,.21,0c.14-.06,0-.37.12-.58S172.63,280.07,173.3,280Z" transform="translate(-75.47 -6.05)"/></g><g id="Layer_7" data-name="Layer 7"><polyline class="cls-1" points="142.04 1.14 128.84 208.59 154.96 202.78"/><rect class="cls-1" x="142.55" y="6.61" width="9.5" height="267.72" transform="translate(-84.14 3.66) rotate(-3.67)"/><polyline class="cls-1" points="58.54 1.14 45.34 208.59 71.46 202.78"/></g></svg>